<svg width="519" height="512" viewBox="0 0 519 512" fill="none" xmlns="http://www.w3.org/2000/svg">
<path d="M259.098 512C402.195 512 518.197 448.231 518.197 369.569C518.197 290.906 402.195 227.137 259.098 227.137C116.002 227.137 0 290.906 0 369.569C0 448.231 116.002 512 259.098 512Z" fill="#F5F5F5"/>
<path d="M157.849 359.279L264.352 297.745C265.074 297.38 265.873 297.19 266.682 297.19C267.492 297.19 268.29 297.38 269.013 297.745L346.681 342.588C346.964 342.683 347.209 342.864 347.383 343.106C347.557 343.347 347.65 343.638 347.65 343.935C347.65 344.233 347.557 344.523 347.383 344.765C347.209 345.007 346.964 345.188 346.681 345.283L240.179 406.771C239.456 407.136 238.658 407.326 237.848 407.326C237.039 407.326 236.24 407.136 235.517 406.771L157.849 361.928C157.582 361.825 157.353 361.643 157.191 361.406C157.03 361.17 156.943 360.89 156.943 360.604C156.943 360.317 157.03 360.038 157.191 359.801C157.353 359.565 157.582 359.383 157.849 359.279Z" fill="#E0E0E0"/>
<path d="M421.609 410.387C460.994 410.387 492.921 391.954 492.921 369.217C492.921 346.479 460.994 328.046 421.609 328.046C382.224 328.046 350.297 346.479 350.297 369.217C350.297 391.954 382.224 410.387 421.609 410.387Z" fill="#E0E0E0"/>
<path d="M127.912 428.784C126.689 428.797 125.483 428.495 124.41 427.908L37.703 377.88C37.0683 377.584 36.5315 377.112 36.1554 376.521C35.7792 375.93 35.5795 375.244 35.5795 374.543C35.5795 373.843 35.7792 373.157 36.1554 372.566C36.5315 371.975 37.0683 371.503 37.703 371.206L107.821 330.695C108.906 330.127 110.111 329.831 111.335 329.831C112.559 329.831 113.764 330.127 114.848 330.695L201.555 380.723C202.189 381.022 202.725 381.495 203.101 382.086C203.476 382.678 203.676 383.365 203.676 384.066C203.676 384.767 203.476 385.453 203.101 386.045C202.725 386.637 202.189 387.11 201.555 387.408L131.425 427.908C130.348 428.495 129.139 428.797 127.912 428.784Z" fill="#E0E0E0"/>
<path d="M56.3384 344.214C56.3384 344.214 57.6118 327.591 51.9268 313.424C46.2418 299.257 36.6456 289.263 26.424 286.466C16.2024 283.669 5.9581 291.605 15.8613 300.269C25.7646 308.933 44.127 319.347 48.5158 345.635L56.3384 344.214Z" fill="#37474F"/>
<path d="M54.1095 339.404H54.2005C54.2732 339.391 54.3425 339.363 54.4043 339.322C54.4661 339.281 54.5191 339.229 54.5604 339.167C54.6017 339.106 54.6303 339.037 54.6447 338.964C54.659 338.892 54.6587 338.817 54.6439 338.745C48.8452 309.694 30.1644 294.47 21.0912 290.468C20.9576 290.426 20.8132 290.435 20.6857 290.492C20.5581 290.55 20.4565 290.653 20.4001 290.781C20.3438 290.91 20.3367 291.054 20.3803 291.187C20.4239 291.32 20.5151 291.433 20.6364 291.503C29.5163 295.414 47.8333 310.377 53.541 338.961C53.5657 339.091 53.637 339.208 53.7416 339.29C53.8462 339.371 53.977 339.412 54.1095 339.404Z" fill="white"/>
<path d="M8.82322 332.048C9.26665 333.935 10.9949 335.208 12.6322 336.266C14.2694 337.323 16.0431 338.449 16.6799 340.279C17.976 343.975 13.917 348.056 15.3609 351.649C15.7119 352.398 16.2113 353.067 16.829 353.616C17.4467 354.165 18.1696 354.583 18.9538 354.844C20.2273 355.333 21.5689 355.595 22.8879 355.981C23.5272 356.092 24.1727 356.164 24.8207 356.197C26.7508 356.144 28.6461 356.718 30.2215 357.835C32.5864 359.836 32.757 363.338 33.8712 366.214C34.5757 367.926 35.6429 369.465 36.9992 370.725C38.3555 371.986 39.9687 372.937 41.7279 373.514C44.6499 374.492 49.2775 374.651 50.3122 373.514C51.0967 372.616 49.9142 369.239 50.1075 368.068C50.5727 365.059 50.763 362.015 50.676 358.972C50.5692 357.582 50.6341 356.184 50.8693 354.81C51.1801 353.294 51.4757 351.759 51.7562 350.205C52.1996 347.727 53.0182 345.078 52.4156 342.542C51.7448 339.756 48.8682 339.131 48.2656 336.425C48.0154 335.288 47.9927 334.219 47.7653 333.128C47.3874 331.518 46.578 330.042 45.4241 328.858C44.2702 327.674 42.8154 326.827 41.2162 326.408C36.2362 325.192 30.9833 328.409 25.9805 327.079C24.7155 326.653 23.4744 326.16 22.2625 325.601C18.3399 324.066 13.4053 324.327 10.4491 327.34C9.8187 327.936 9.3416 328.675 9.05849 329.494C8.77538 330.314 8.69467 331.19 8.82322 332.048Z" fill="#455A64"/>
<path d="M49.3001 365.555C49.4147 365.544 49.5207 365.489 49.5966 365.403C49.6726 365.316 49.7129 365.204 49.7095 365.089C47.7311 337.665 20.9662 328.637 14.4626 327.875C14.3466 327.862 14.2303 327.896 14.1388 327.968C14.0473 328.04 13.9879 328.146 13.9737 328.262C13.9674 328.318 13.9724 328.376 13.9885 328.431C14.0046 328.486 14.0314 328.537 14.0673 328.581C14.1033 328.625 14.1477 328.662 14.198 328.689C14.2482 328.717 14.3034 328.733 14.3603 328.739C20.7388 329.49 46.9238 338.313 48.8567 365.123C48.8567 365.181 48.8682 365.238 48.8907 365.291C48.9131 365.344 48.9459 365.392 48.9873 365.433C49.0286 365.473 49.0776 365.504 49.1313 365.525C49.185 365.546 49.2425 365.557 49.3001 365.555Z" fill="white"/>
<path d="M21.2277 346.499C21.3178 346.502 21.4063 346.474 21.4778 346.419C24.4398 344.705 27.7429 343.665 31.1523 343.372C34.5618 343.079 37.9939 343.541 41.2047 344.725C41.3093 344.744 41.4174 344.726 41.5092 344.672C41.6011 344.618 41.6706 344.533 41.705 344.433C41.7395 344.332 41.7366 344.222 41.697 344.124C41.6573 344.025 41.5835 343.944 41.489 343.895C38.1551 342.67 34.5918 342.197 31.0537 342.509C27.5157 342.822 24.0905 343.912 21.023 345.703C20.9758 345.735 20.9354 345.776 20.9041 345.824C20.8729 345.871 20.8513 345.925 20.8407 345.981C20.8302 346.037 20.8308 346.094 20.8426 346.15C20.8543 346.206 20.877 346.259 20.9093 346.306C20.944 346.36 20.9908 346.406 21.046 346.439C21.1012 346.473 21.1634 346.493 21.2277 346.499Z" fill="white"/>
<path d="M59.8854 185.125L64.5925 187.843L182.112 119.987L177.417 117.281L59.8854 185.125Z" fill="#F5F5F5"/>
<path d="M123.353 42.0801V151.209L128.048 148.491V39.3627L123.353 42.0801Z" fill="#EBEBEB"/>
<path d="M120.999 40.7157L123.353 42.0801V151.209L120.999 149.844V40.7157Z" fill="#E0E0E0"/>
<path d="M123.353 42.0802L128.048 39.3628L125.706 37.9984L120.999 40.7158L123.353 42.0802Z" fill="#FAFAFA"/>
<path d="M186.808 2.71732L59.8854 76.0307V195.984L186.808 122.704V2.71732ZM182.112 119.987L64.5925 187.843V78.6913L182.112 10.8582V119.987Z" fill="#EBEBEB"/>
<path d="M182.113 119.987L177.417 117.281L177.406 13.5757L182.113 10.8583V119.987Z" fill="#E0E0E0"/>
<path d="M186.808 2.71742L182.113 0L55.1898 73.2793L59.8856 75.9967L186.808 2.71742Z" fill="#F5F5F5"/>
<path d="M55.1898 73.2793L59.8856 75.9967V195.984L55.1898 193.266V73.2793Z" fill="#E0E0E0"/>
<path opacity="0.1" d="M123.353 44.7861L128.037 42.08V44.7974L123.353 47.5035V44.7861Z" fill="black"/>
<path opacity="0.1" d="M123.353 47.5037L120.999 46.1393L123.353 44.7863V47.5037Z" fill="black"/>
<path d="M422.371 90.8116C414.128 93.5404 412.138 94.1544 406.453 103.023C400.973 111.55 395.322 127.298 390.422 139.941C381.326 137.36 362.133 132.88 355.777 129.197C349.422 125.513 350.092 122.966 347.489 120.589C344.51 117.849 341.383 111.278 338.95 114.905C337.301 117.338 340.701 118.975 340.485 122.056C340.269 125.137 330.945 117.838 327.034 115.109C324.442 113.29 318.427 118.975 320.849 125.149C322.975 130.606 326.397 134.074 332.526 136.655C338.995 139.395 342.372 140.771 350.502 144.421C358.995 148.23 393.992 163.75 397.448 161.555C405.328 157.667 412.548 133.278 417.323 122.75C422.098 112.221 418.903 101.306 422.371 90.8116Z" fill="#FFA8A7"/>
<path d="M424.362 89.7655C420.826 94.4158 422.281 92.5398 421.19 99.7028C420.314 105.49 408.16 161.101 397.165 163.454C392.333 164.466 357.506 148.537 349.059 143.875C351.912 139.668 354.744 134.472 355.733 129.162C365.852 133.119 383.305 137.019 389.57 138.963C392.469 130.879 396.017 122.579 399.348 114.416C405.681 98.8842 409.751 91.8689 424.362 89.7655Z" fill="#0092B8"/>
<path opacity="0.2" d="M424.362 89.7655C420.826 94.4158 422.281 92.5398 421.19 99.7028C420.314 105.49 408.16 161.101 397.165 163.454C392.333 164.466 357.506 148.537 349.059 143.875C351.912 139.668 354.744 134.472 355.733 129.162C365.852 133.119 383.305 137.019 389.57 138.963C392.469 130.879 396.017 122.579 399.348 114.416C405.681 98.8842 409.751 91.8689 424.362 89.7655Z" fill="black"/>
<path d="M471.592 341.962H458.028V365.191H471.592V341.962Z" fill="#FFA8A7"/>
<path d="M421.177 350.74L406.362 351.251L405.623 324.407L422.394 323.861L421.177 350.74Z" fill="#FFA8A7"/>
<path d="M469.932 183.909C469.932 196.256 470.784 268.046 470.784 268.046C471.08 271.594 474.502 277.915 474.775 290.718C475.162 309.285 472.297 353.002 472.297 353.002C470.065 354.101 467.618 354.696 465.131 354.745C462.644 354.794 460.176 354.296 457.902 353.287C457.902 353.287 447.749 291.446 445.395 273.072C443.372 257.029 437.596 215.085 437.596 215.085L428.852 269.593C429.813 276.118 430.057 282.729 429.58 289.308C428.977 297.813 422.542 340.052 422.542 340.052C416.945 341.897 410.912 341.953 405.282 340.211C405.282 340.211 403.929 274.379 403.781 266.591C403.611 257.7 407.488 181.225 407.488 181.225L469.932 183.909Z" fill="#37474F"/>
<path d="M458.028 358.483V356.55C457.3 356.55 456.891 357.255 456.573 359.006C456.378 360.296 456.116 361.575 455.788 362.837C455.18 365.212 454.385 367.535 453.412 369.784C451.49 374.514 449.887 376.277 445.453 381.803C444.418 383.11 442.042 385.214 441.246 386.657C440.45 388.101 440.109 392.172 441.53 393.104C446.647 396.515 454.435 396.618 459.938 395.003C461.986 394.426 463.826 393.273 465.237 391.681C466.648 390.088 467.571 388.123 467.897 386.021C468.102 384.77 468.034 383.497 468.17 382.235C468.655 379.371 469.825 376.668 471.581 374.355C472.598 373.022 473.471 371.586 474.185 370.069C475.322 367.272 474.412 364.134 473.685 361.359C473.059 358.96 472.377 356.322 471.558 356.55V358.005C470.569 359.142 467.84 360.177 464.736 360.279C462.838 360.393 458.017 360.006 458.028 358.483Z" fill="#0092B8"/>
<path opacity="0.6" d="M458.028 358.483V356.55C457.3 356.55 456.891 357.255 456.573 359.006C456.378 360.296 456.116 361.575 455.788 362.837C455.18 365.212 454.385 367.535 453.412 369.784C451.49 374.514 449.887 376.277 445.453 381.803C444.418 383.11 442.042 385.214 441.246 386.657C440.45 388.101 440.109 392.172 441.53 393.104C446.647 396.515 454.435 396.618 459.938 395.003C461.986 394.426 463.826 393.273 465.237 391.681C466.648 390.088 467.571 388.123 467.897 386.021C468.102 384.77 468.034 383.497 468.17 382.235C468.655 379.371 469.825 376.668 471.581 374.355C472.598 373.022 473.471 371.586 474.185 370.069C475.322 367.272 474.412 364.134 473.685 361.359C473.059 358.96 472.377 356.322 471.558 356.55V358.005C470.569 359.142 467.84 360.177 464.736 360.279C462.838 360.393 458.017 360.006 458.028 358.483Z" fill="black"/>
<path d="M406.214 346.635C405.441 346.635 404.816 347.772 403.122 349.58C400.584 352.142 397.637 354.264 394.401 355.856C388.852 358.631 378.074 362.906 373.185 365.1C370.138 366.476 370.285 370.16 373.435 372.252C376.584 374.344 384.202 375.867 393.332 373.821C398.312 372.684 404.793 368.136 408.898 368.352C413.002 368.568 420.666 368.545 423.679 366.453C426.692 364.361 425.486 359.915 424.634 356.084C423.701 351.9 422.769 345.385 421.382 345.669L421.314 347.227C419.529 349.933 410.183 350.91 406.271 348.921L406.214 346.635Z" fill="#0092B8"/>
<path opacity="0.6" d="M406.214 346.635C405.441 346.635 404.816 347.772 403.122 349.58C400.584 352.142 397.637 354.264 394.401 355.856C388.852 358.631 378.074 362.906 373.185 365.1C370.138 366.476 370.285 370.16 373.435 372.252C376.584 374.344 384.202 375.867 393.332 373.821C398.312 372.684 404.793 368.136 408.898 368.352C413.002 368.568 420.666 368.545 423.679 366.453C426.692 364.361 425.486 359.915 424.634 356.084C423.701 351.9 422.769 345.385 421.382 345.669L421.314 347.227C419.529 349.933 410.183 350.91 406.271 348.921L406.214 346.635Z" fill="black"/>
<path d="M437.63 215.096C437.63 215.096 426.089 211.333 418.415 203.92C418.415 203.92 421.894 210.423 432.229 216.483L429.75 264.237L437.63 215.096Z" fill="#263238"/>
<path d="M447.51 89.1515C452.268 90.2387 456.96 91.5978 461.563 93.222C465.065 94.4727 466.952 97.77 467.703 101.09C470.09 111.619 470.511 133.71 470.511 133.71L470.647 185.137C461.733 191.629 425.168 194.926 406.385 181.237C406.385 181.237 408.659 119.975 408.659 110.447C408.659 100.919 413.957 89.4585 428.579 88.6058L447.51 89.1515Z" fill="#0092B8"/>
<path opacity="0.4" d="M447.51 89.1515C452.268 90.2387 456.96 91.5978 461.563 93.222C465.065 94.4727 466.952 97.77 467.703 101.09C470.09 111.619 470.511 133.71 470.511 133.71L470.647 185.137C461.733 191.629 425.168 194.926 406.385 181.237C406.385 181.237 408.659 119.975 408.659 110.447C408.659 100.919 413.957 89.4585 428.579 88.6058L447.51 89.1515Z" fill="black"/>
<path d="M518.583 149.287C518.601 149.117 518.575 148.945 518.507 148.788C518.44 148.631 518.333 148.493 518.197 148.389L518.094 148.321L516.036 147.127C515.875 147.057 515.698 147.029 515.523 147.047C515.347 147.065 515.18 147.128 515.036 147.23L473.752 171.004L472.615 166.16C472.521 165.835 472.31 165.556 472.023 165.376L469.886 164.137C469.688 164.02 469.462 163.958 469.232 163.958C469.002 163.958 468.776 164.02 468.578 164.137L451.012 174.29C450.596 174.56 450.25 174.924 450.001 175.353C449.752 175.781 449.608 176.262 449.579 176.757V235.267C449.562 235.438 449.588 235.61 449.653 235.769C449.718 235.927 449.822 236.067 449.954 236.177L452.149 237.484C452.308 237.547 452.481 237.569 452.652 237.549C452.822 237.53 452.985 237.468 453.126 237.37L517.173 200.384C517.589 200.114 517.935 199.75 518.184 199.321C518.433 198.893 518.577 198.411 518.606 197.917L518.583 149.287Z" fill="#0092B8"/>
<path opacity="0.5" d="M471.955 165.353C471.757 165.248 471.535 165.197 471.311 165.207C471.087 165.217 470.869 165.287 470.682 165.41L453.138 175.529C452.721 175.801 452.375 176.167 452.126 176.598L449.989 175.359C450.227 174.921 450.576 174.552 451 174.29L468.544 164.159C468.742 164.042 468.968 163.981 469.198 163.981C469.428 163.981 469.654 164.042 469.852 164.159L471.955 165.353Z" fill="white"/>
<path opacity="0.5" d="M518.095 148.321C517.938 148.277 517.774 148.268 517.613 148.293C517.452 148.319 517.298 148.378 517.163 148.468L475.878 172.277C475.712 172.389 475.52 172.459 475.32 172.48C475.121 172.502 474.919 172.475 474.732 172.401C474.545 172.327 474.379 172.209 474.248 172.057C474.117 171.904 474.025 171.722 473.98 171.527L473.786 171.004L515.025 147.218C515.214 147.102 515.429 147.035 515.651 147.024C515.781 147.022 515.911 147.053 516.026 147.115L518.095 148.321Z" fill="white"/>
<path d="M518.583 149.287V197.882C518.559 198.378 518.417 198.861 518.17 199.292C517.923 199.723 517.578 200.089 517.162 200.361L452.967 237.484C452.84 237.558 452.695 237.597 452.547 237.597C452.399 237.597 452.254 237.558 452.126 237.484C451.999 237.41 451.892 237.304 451.818 237.177C451.745 237.049 451.705 236.904 451.705 236.756V178.008C451.721 177.513 451.866 177.031 452.126 176.609C452.367 176.177 452.711 175.81 453.127 175.541L470.682 165.41C470.871 165.29 471.088 165.222 471.311 165.212C471.534 165.202 471.756 165.251 471.955 165.353C472.242 165.533 472.453 165.812 472.546 166.138L473.752 170.981L473.934 171.504C473.979 171.701 474.071 171.884 474.203 172.038C474.335 172.191 474.501 172.311 474.689 172.385C474.877 172.46 475.08 172.489 475.281 172.468C475.482 172.447 475.675 172.378 475.844 172.266L517.128 148.446C517.263 148.353 517.417 148.293 517.578 148.269C517.74 148.246 517.905 148.26 518.06 148.31H518.117C518.28 148.412 518.41 148.558 518.492 148.731C518.575 148.904 518.606 149.097 518.583 149.287Z" fill="#0092B8"/>
<path d="M505.974 157.337L505.986 149.663L510.545 147.025V154.699L505.974 157.337Z" fill="#455A64"/>
<path opacity="0.2" d="M452.23 237.484H452.161L449.956 236.21C449.821 236.102 449.715 235.963 449.648 235.804C449.581 235.645 449.553 235.473 449.569 235.301V176.757C449.59 176.263 449.735 175.782 449.99 175.358L452.127 176.598C451.871 177.02 451.73 177.502 451.718 177.996V236.688C451.71 236.857 451.755 237.025 451.847 237.167C451.939 237.31 452.072 237.42 452.23 237.484Z" fill="black"/>
<path d="M495.776 157.985C483.986 109.686 477.88 94.8707 463.52 95.0526C459.336 100.067 463.747 115.644 466.522 123.227C466.522 123.227 479.21 154.233 481.575 165.296C483.645 175.029 485.987 187.263 485.839 195.631C485.799 197.115 485.212 198.533 484.19 199.611C481.496 202.533 481.484 204.886 479.745 208.115C478.38 210.651 476.88 211.595 477.3 212.163C477.864 212.764 478.632 213.131 479.453 213.192C480.274 213.253 481.089 213.003 481.735 212.493C483.018 211.583 484.167 210.496 485.146 209.264C484.843 213.075 483.957 216.818 482.519 220.361L479.438 222.112C479.438 222.112 480.359 225.227 487.613 223.146C495.811 220.804 498.744 219.735 499.608 205.898C500.027 200.781 500.077 195.639 499.756 190.515C498.573 177.337 497.63 165.762 495.776 157.985Z" fill="#FFA8A7"/>
<path d="M461.563 93.2221C461.563 93.2221 472.512 92.9833 475.98 98.2931C479.982 104.422 485.19 113.927 491.898 137.883C498.606 161.84 500.698 179.338 500.994 192.823C500.994 192.823 492.557 196.768 484.769 192.266C484.769 192.266 481.358 171.425 478.254 160.339C475.15 149.253 465.394 125.217 465.394 125.217C465.394 125.217 456.105 109.902 461.563 93.2221Z" fill="#0092B8"/>
<path opacity="0.2" d="M461.563 93.2221C461.563 93.2221 472.512 92.9833 475.98 98.2931C479.982 104.422 485.19 113.927 491.898 137.883C498.606 161.84 500.698 179.338 500.994 192.823C500.994 192.823 492.557 196.768 484.769 192.266C484.769 192.266 481.358 171.425 478.254 160.339C475.15 149.253 465.394 125.217 465.394 125.217C465.394 125.217 456.105 109.902 461.563 93.2221Z" fill="black"/>
<path d="M444.508 48.5156C444.508 51.9112 443.501 55.2306 441.615 58.0539C439.728 60.8773 437.047 63.0778 433.91 64.3773C430.773 65.6767 427.321 66.0167 423.99 65.3543C420.66 64.6918 417.601 63.0567 415.2 60.6556C412.799 58.2545 411.163 55.1954 410.501 51.865C409.839 48.5346 410.179 45.0826 411.478 41.9454C412.777 38.8083 414.978 36.1269 417.801 34.2404C420.625 32.3539 423.944 31.347 427.34 31.347C431.893 31.347 436.26 33.1558 439.48 36.3755C442.7 39.5953 444.508 43.9622 444.508 48.5156Z" fill="#263238"/>
<path d="M457.016 60.7155C457.016 60.7155 454.23 73.7909 453.116 75.9399C452.372 77.2586 451.151 78.2429 449.705 78.6914L449.898 69.5045L457.016 60.7155Z" fill="#263238"/>
<path d="M453.525 42.0005C454.496 41.8876 455.48 41.998 456.402 42.3231C457.324 42.6482 458.16 43.1795 458.846 43.8765C461.12 46.2187 459.858 53.541 457.015 60.7154L451.774 61.318L453.525 42.0005Z" fill="#263238"/>
<path d="M450.194 61.3294C451.252 61.9547 452.752 59.9309 454.049 58.5779C455.345 57.2248 459.574 55.3715 461.678 59.8172C463.781 64.2628 459.813 70.3344 456.493 71.3804C450.751 73.1769 449.887 69.5044 449.887 69.5044L449.467 90.8116C445.498 95.894 436.584 101.875 431.786 101.045C427.955 100.362 427.113 93.8929 430.774 89.6747V83.3757C428.215 83.7819 425.619 83.9153 423.031 83.7737C418.813 83.1256 416.209 79.7942 414.879 75.2235C412.821 67.8898 412.048 61.9547 413.742 47.5263C415.652 31.7107 434.049 31.6084 443.986 37.805C453.924 44.0016 450.194 61.3294 450.194 61.3294Z" fill="#FFA8A7"/>
<path d="M414.117 40.4542C417.585 43.2739 419.802 44.7747 426.544 45.0021C431.124 45.1581 435.678 44.2636 439.858 42.3871C440.096 43.992 440.782 45.4974 441.837 46.7304C443.155 48.1135 444.762 49.1888 446.544 49.8798C446.896 52.7337 446.885 56.3834 447.067 59.2487C447.124 60.2151 447.067 65.2406 449.409 63.7966C450.172 63.1287 450.845 62.3643 451.41 61.5227C452.232 60.4945 453.113 59.5151 454.048 58.5892C455.856 56.9406 453.525 42.0118 453.525 42.0118C454.15 40.698 454.366 39.2263 454.143 37.7884C453.919 36.3505 453.268 35.0131 452.274 33.9506C449.784 31.2104 446.328 27.879 435.06 29.2093C427.033 30.1644 418.29 32.6203 411.183 29.2093C410.251 33.2342 411.627 38.4303 414.117 40.4542Z" fill="#263238"/>
<path d="M453.514 43.1603L459.858 39.7494C459.655 39.3214 459.368 38.9391 459.013 38.6254C458.658 38.3118 458.243 38.0733 457.794 37.9245C457.344 37.7758 456.869 37.7197 456.397 37.7597C455.925 37.7998 455.467 37.9351 455.048 38.1576C454.198 38.6335 453.564 39.4192 453.278 40.3511C452.992 41.283 453.076 42.2892 453.514 43.1603Z" fill="#263238"/>
<path d="M430.796 83.353C430.796 83.353 440.21 81.4543 443.507 79.7033C445.446 78.6796 447.031 77.0945 448.055 75.1553C447.554 77.0804 446.672 78.8857 445.463 80.4651C443.052 83.5463 430.784 85.8089 430.784 85.8089L430.796 83.353Z" fill="#F28F8F"/>
<path d="M431.751 57.9867C431.769 58.3826 431.903 58.7646 432.135 59.0853C432.368 59.4059 432.69 59.6511 433.061 59.7904C433.432 59.9298 433.836 59.9571 434.223 59.869C434.609 59.781 434.961 59.5814 435.235 59.2951C435.509 59.0087 435.693 58.6482 435.764 58.2583C435.835 57.8684 435.79 57.4663 435.634 57.1017C435.479 56.7372 435.22 56.4263 434.889 56.2077C434.559 55.9891 434.171 55.8723 433.775 55.8719C433.227 55.8868 432.707 56.1173 432.328 56.5133C431.949 56.9092 431.742 57.4387 431.751 57.9867Z" fill="#263238"/>
<path d="M433.775 51.1418L437.948 53.4158C438.249 52.8433 438.316 52.1765 438.136 51.5554C437.956 50.9343 437.542 50.4071 436.982 50.0844C436.705 49.9269 436.399 49.8291 436.082 49.7974C435.765 49.7657 435.446 49.8009 435.144 49.9005C434.841 50.0002 434.563 50.1622 434.328 50.376C434.092 50.5898 433.904 50.8507 433.775 51.1418Z" fill="#263238"/>
<path d="M431.593 71.733L426.919 73.484C427.019 73.7988 427.181 74.0901 427.397 74.3401C427.613 74.5901 427.877 74.7937 428.174 74.9383C428.47 75.083 428.793 75.1657 429.123 75.1815C429.453 75.1974 429.782 75.1459 430.092 75.0303C430.719 74.7808 431.226 74.2982 431.506 73.6836C431.785 73.069 431.816 72.3701 431.593 71.733Z" fill="#F28F8F"/>
<path d="M415.072 52.8246L418.881 49.8798C418.705 49.6192 418.477 49.3979 418.211 49.23C417.945 49.062 417.647 48.951 417.336 48.904C417.025 48.857 416.708 48.8749 416.404 48.9568C416.101 49.0387 415.817 49.1826 415.572 49.3796C415.06 49.7781 414.722 50.3593 414.629 51.0014C414.536 51.6436 414.694 52.2969 415.072 52.8246Z" fill="#263238"/>
<path d="M415.936 57.6001C415.952 57.9831 416.08 58.3531 416.304 58.6641C416.528 58.975 416.839 59.2133 417.197 59.3491C417.556 59.485 417.946 59.5126 418.32 59.4284C418.694 59.3442 419.035 59.1519 419.3 58.8755C419.566 58.5991 419.745 58.2507 419.814 57.8737C419.883 57.4967 419.84 57.1076 419.69 56.7549C419.54 56.4022 419.289 56.1013 418.97 55.8897C418.65 55.6782 418.275 55.5652 417.892 55.5649C417.363 55.5768 416.861 55.7976 416.494 56.179C416.128 56.5603 415.927 57.0713 415.936 57.6001Z" fill="#263238"/>
<path d="M426.396 55.9969L425.725 68.2992L419.301 66.1161L426.396 55.9969Z" fill="#F28F8F"/>
<path d="M424.077 99.6915C425.282 102.545 427.488 103.705 431.502 104.149C433.516 104.292 435.539 104.024 437.446 103.362C439.354 102.699 441.107 101.655 442.599 100.294L437.607 95.3596L431.286 100.124L430.751 94.8138L424.077 99.6915Z" fill="#263238"/>
<path d="M427.227 98.1338C426.644 99.8513 426.42 101.67 426.567 103.478C426.751 105.091 427.364 106.626 428.341 107.923C428.978 108.326 429.698 108.577 430.447 108.658C431.196 108.738 431.954 108.647 432.662 108.389C433.947 107.284 434.979 105.915 435.688 104.375C436.396 102.834 436.764 101.159 436.766 99.464L431.286 100.089L427.227 98.1338Z" fill="#37474F"/>
<path d="M428.34 107.923C428.34 107.923 421.86 143.75 421.587 146.638C421.314 149.526 425.316 159.805 427.795 159.895C430.273 159.986 435.128 150.686 435.197 148.048C435.265 145.41 432.661 108.39 432.661 108.39L428.34 107.923Z" fill="#37474F"/>
<path d="M432.661 108.39C431.963 108.699 431.196 108.819 430.438 108.738C429.679 108.656 428.955 108.375 428.34 107.923L428.238 108.492C428.861 108.988 429.594 109.328 430.375 109.482C431.157 109.636 431.964 109.601 432.729 109.379L432.661 108.39Z" fill="#263238"/>
<path d="M431.286 100.089L449.557 86.1613L449.626 82.5002C449.626 82.5002 453.912 83.6371 454.867 91.1413C452.263 97.2015 447.534 102.363 440.598 106.32L436.766 99.4982L431.286 100.089Z" fill="#0092B8"/>
<path opacity="0.2" d="M431.286 100.089L449.557 86.1613L449.626 82.5002C449.626 82.5002 453.912 83.6371 454.867 91.1413C452.263 97.2015 447.534 102.363 440.598 106.32L436.766 99.4982L431.286 100.089Z" fill="black"/>
<path d="M430.796 84.2626C430.796 84.2626 426.498 86.2523 424.667 89.2768C422.837 92.3012 422.848 102.113 422.848 102.113L427.226 98.1339L431.285 100.09C430.898 96.2465 430.773 89.652 430.773 89.652L430.796 84.2626Z" fill="#0092B8"/>
<path opacity="0.2" d="M430.796 84.2626C430.796 84.2626 426.498 86.2523 424.667 89.2768C422.837 92.3012 422.848 102.113 422.848 102.113L427.226 98.1339L431.285 100.09C430.898 96.2465 430.773 89.652 430.773 89.652L430.796 84.2626Z" fill="black"/>
<path d="M237.848 397.903L170.572 359.063V148.207L237.848 187.047V397.903Z" fill="#263238"/>
<path d="M237.848 187.047L333.958 131.562V342.417L237.848 397.903V187.047Z" fill="#37474F"/>
<path d="M333.958 131.562L237.848 187.047L170.572 148.207L266.682 92.7218L333.958 131.562Z" fill="#455A64"/>
<path d="M247.456 323.702L324.351 279.314V332.753L326.113 333.776L249.229 378.164L247.456 377.141V323.702Z" fill="#263238"/>
<path d="M249.229 324.725L326.113 280.337V333.776L249.229 378.164V324.725Z" fill="#455A64"/>
<g opacity="0.05">
<path d="M249.229 324.725L326.113 280.337V333.776L249.229 378.164V324.725Z" fill="black"/>
</g>
<path d="M279.326 316.38L292.401 308.831C294.095 307.853 295.471 308.308 295.471 309.831C295.347 310.777 295.003 311.68 294.468 312.47C293.934 313.259 293.222 313.913 292.39 314.379L279.326 321.929C277.632 322.918 276.256 322.463 276.256 320.928C276.382 319.985 276.725 319.083 277.258 318.294C277.79 317.505 278.498 316.85 279.326 316.38Z" fill="#263238"/>
<path d="M247.456 259.178L324.351 214.79V268.228L326.113 269.252L249.229 313.64L247.456 312.617V259.178Z" fill="#263238"/>
<path d="M249.229 260.201L326.113 215.813V269.251L249.229 313.64V260.201Z" fill="#455A64"/>
<g opacity="0.05">
<path d="M249.229 260.201L326.113 215.813V269.251L249.229 313.64V260.201Z" fill="black"/>
</g>
<path d="M279.326 251.856L292.401 244.306C294.095 243.328 295.471 243.783 295.471 245.307C295.347 246.252 295.003 247.156 294.468 247.945C293.934 248.735 293.222 249.389 292.39 249.855L279.326 257.404C277.632 258.393 276.256 257.939 276.256 256.404C276.382 255.46 276.725 254.559 277.258 253.77C277.79 252.981 278.498 252.326 279.326 251.856Z" fill="#263238"/>
<path d="M247.456 194.653L324.351 150.265V203.693L247.456 248.081V194.653Z" fill="#263238"/>
<path d="M362.792 181.499L320.132 156.883L320.121 203.966L362.781 228.581L362.792 181.499Z" fill="#37474F"/>
<g opacity="0.1">
<path d="M362.792 181.499L320.132 156.883L320.121 203.966L362.781 228.581L362.792 181.499Z" fill="black"/>
</g>
<path d="M323.111 155.154L320.121 156.882L362.792 181.498L365.771 179.781L323.111 155.154Z" fill="#455A64"/>
<path d="M335.13 160.35C335.147 160.17 335.118 159.988 335.044 159.823C334.97 159.658 334.855 159.514 334.709 159.407C334.678 159.379 334.644 159.356 334.607 159.339L332.435 158.077C332.266 157.998 332.078 157.965 331.892 157.983C331.706 158.001 331.529 158.069 331.378 158.179L287.933 183.193L286.66 178.088C286.565 177.741 286.341 177.444 286.034 177.258L283.76 175.939C283.552 175.816 283.314 175.751 283.072 175.751C282.83 175.751 282.593 175.816 282.384 175.939L263.897 186.615C263.459 186.9 263.095 187.284 262.834 187.737C262.573 188.189 262.423 188.697 262.396 189.219V250.855C262.375 251.036 262.402 251.22 262.474 251.387C262.546 251.555 262.66 251.701 262.805 251.81L265.079 253.163C265.248 253.225 265.428 253.245 265.606 253.223C265.784 253.202 265.954 253.138 266.103 253.038L333.595 214.073C334.032 213.788 334.396 213.404 334.657 212.951C334.917 212.499 335.068 211.991 335.096 211.47L335.13 160.35Z" fill="#0092B8"/>
<path opacity="0.2" d="M285.989 177.28C285.784 177.163 285.553 177.102 285.318 177.102C285.082 177.102 284.851 177.163 284.647 177.28L266.159 187.956C265.715 188.239 265.351 188.63 265.102 189.093L262.828 187.775C263.08 187.314 263.444 186.923 263.885 186.638L282.396 176.086C282.604 175.963 282.842 175.898 283.084 175.898C283.326 175.898 283.563 175.963 283.771 176.086L285.989 177.28Z" fill="black"/>
<path opacity="0.2" d="M334.607 159.338C334.441 159.286 334.266 159.272 334.095 159.298C333.924 159.323 333.76 159.388 333.617 159.486L290.127 184.58C289.95 184.697 289.747 184.77 289.536 184.792C289.325 184.814 289.111 184.785 288.913 184.707C288.716 184.629 288.54 184.504 288.401 184.343C288.262 184.183 288.164 183.991 288.115 183.784L287.922 183.238L331.366 158.224C331.568 158.099 331.799 158.029 332.037 158.02C332.173 158.017 332.307 158.052 332.424 158.122L334.607 159.338Z" fill="black"/>
<path d="M335.13 160.362V211.527C335.103 212.048 334.953 212.556 334.692 213.009C334.431 213.461 334.067 213.846 333.629 214.13L265.966 253.197C265.831 253.275 265.678 253.316 265.521 253.316C265.365 253.316 265.212 253.275 265.077 253.196C264.942 253.118 264.83 253.005 264.753 252.869C264.675 252.734 264.635 252.58 264.636 252.424V190.617C264.671 190.097 264.824 189.592 265.084 189.141C265.344 188.69 265.704 188.304 266.137 188.013L284.624 177.348C284.824 177.219 285.054 177.145 285.292 177.133C285.529 177.121 285.766 177.172 285.977 177.28C286.285 177.466 286.509 177.764 286.603 178.11L287.876 183.215L288.069 183.761C288.117 183.969 288.214 184.162 288.352 184.324C288.491 184.486 288.666 184.612 288.864 184.692C289.062 184.771 289.276 184.801 289.488 184.78C289.7 184.758 289.904 184.686 290.082 184.568L333.572 159.475C333.715 159.377 333.878 159.312 334.049 159.286C334.221 159.261 334.396 159.275 334.561 159.327H334.618C334.788 159.438 334.925 159.593 335.015 159.775C335.105 159.957 335.144 160.159 335.13 160.362Z" fill="#0092B8"/>
<path opacity="0.3" d="M335.13 160.362V211.527C335.103 212.048 334.953 212.556 334.692 213.009C334.431 213.461 334.067 213.846 333.629 214.13L265.966 253.197C265.831 253.275 265.678 253.316 265.521 253.316C265.365 253.316 265.212 253.275 265.077 253.196C264.942 253.118 264.83 253.005 264.753 252.869C264.675 252.734 264.635 252.58 264.636 252.424V190.617C264.671 190.097 264.824 189.592 265.084 189.141C265.344 188.69 265.704 188.304 266.137 188.013L284.624 177.348C284.824 177.219 285.054 177.145 285.292 177.133C285.529 177.121 285.766 177.172 285.977 177.28C286.285 177.466 286.509 177.764 286.603 178.11L287.876 183.215L288.069 183.761C288.117 183.969 288.214 184.162 288.352 184.324C288.491 184.486 288.666 184.612 288.864 184.692C289.062 184.771 289.276 184.801 289.488 184.78C289.7 184.758 289.904 184.686 290.082 184.568L333.572 159.475C333.715 159.377 333.878 159.312 334.049 159.286C334.221 159.261 334.396 159.275 334.561 159.327H334.618C334.788 159.438 334.925 159.593 335.015 159.775C335.105 159.957 335.144 160.159 335.13 160.362Z" fill="black"/>
<path d="M290.707 186.808V178.724L295.516 175.95V184.034L290.707 186.808Z" fill="#E0E0E0"/>
<path opacity="0.5" d="M265.204 253.277H265.136L262.862 251.924C262.723 251.809 262.613 251.662 262.542 251.496C262.471 251.33 262.44 251.149 262.453 250.969V189.298C262.473 188.776 262.625 188.267 262.896 187.82L265.17 189.139C264.898 189.586 264.745 190.095 264.727 190.617V252.458C264.719 252.626 264.76 252.793 264.845 252.938C264.93 253.083 265.054 253.201 265.204 253.277Z" fill="black"/>
<path d="M342.372 164.58C342.389 164.398 342.36 164.215 342.286 164.048C342.213 163.88 342.097 163.735 341.951 163.625H341.849L339.677 162.351C339.508 162.273 339.321 162.24 339.135 162.258C338.949 162.276 338.771 162.344 338.62 162.454L295.175 187.468L293.902 182.363C293.805 182.017 293.582 181.721 293.277 181.533L291.003 180.214C290.794 180.091 290.557 180.026 290.315 180.026C290.073 180.026 289.835 180.091 289.627 180.214L271.139 190.89C270.702 191.175 270.338 191.56 270.077 192.012C269.817 192.465 269.666 192.972 269.639 193.494V255.142C269.62 255.321 269.647 255.502 269.719 255.667C269.791 255.833 269.904 255.977 270.048 256.085L272.322 257.438C272.49 257.5 272.671 257.52 272.848 257.498C273.026 257.477 273.196 257.413 273.345 257.313L340.837 218.348C341.275 218.064 341.639 217.679 341.9 217.227C342.161 216.774 342.311 216.266 342.338 215.745L342.372 164.58Z" fill="#0092B8"/>
<path opacity="0.1" d="M293.243 181.498C293.031 181.39 292.795 181.339 292.557 181.351C292.32 181.363 292.089 181.437 291.89 181.567L273.402 192.232C272.961 192.517 272.597 192.908 272.345 193.369L270.071 192.061C270.32 191.598 270.684 191.206 271.128 190.924L289.616 180.248C289.824 180.125 290.062 180.06 290.304 180.06C290.546 180.06 290.783 180.125 290.992 180.248L293.243 181.498Z" fill="black"/>
<path opacity="0.1" d="M341.86 163.579C341.695 163.527 341.52 163.513 341.349 163.539C341.177 163.564 341.014 163.629 340.871 163.727L297.381 188.821C297.203 188.938 297 189.011 296.788 189.032C296.575 189.054 296.361 189.023 296.164 188.944C295.966 188.865 295.79 188.739 295.652 188.577C295.513 188.414 295.416 188.221 295.369 188.013L295.175 187.468L338.62 162.454C338.822 162.329 339.053 162.258 339.291 162.249C339.426 162.252 339.558 162.287 339.677 162.351L341.86 163.579Z" fill="black"/>
<path d="M342.372 164.58V215.745C342.344 216.266 342.194 216.774 341.933 217.226C341.672 217.679 341.309 218.063 340.871 218.348L273.209 257.404C273.074 257.482 272.922 257.523 272.767 257.523C272.612 257.523 272.459 257.483 272.325 257.406C272.19 257.329 272.078 257.218 272 257.084C271.921 256.95 271.88 256.798 271.879 256.642V194.79C271.897 194.267 272.05 193.758 272.322 193.312C272.573 192.85 272.937 192.459 273.379 192.175L291.867 181.499C292.071 181.376 292.305 181.312 292.543 181.312C292.782 181.312 293.015 181.376 293.22 181.499C293.528 181.689 293.752 181.99 293.845 182.34L295.119 187.434L295.312 187.991C295.361 188.198 295.459 188.39 295.598 188.55C295.737 188.711 295.913 188.836 296.111 188.914C296.308 188.992 296.522 189.021 296.733 188.999C296.944 188.977 297.147 188.904 297.324 188.787L340.815 163.693C340.967 163.591 341.141 163.528 341.324 163.508C341.506 163.488 341.69 163.513 341.861 163.579H341.917C342.077 163.689 342.203 163.841 342.283 164.017C342.363 164.193 342.394 164.388 342.372 164.58Z" fill="#0092B8"/>
<path opacity="0.2" d="M342.372 164.58V215.745C342.344 216.266 342.194 216.774 341.933 217.226C341.672 217.679 341.309 218.063 340.871 218.348L273.209 257.404C273.074 257.482 272.922 257.523 272.767 257.523C272.612 257.523 272.459 257.483 272.325 257.406C272.19 257.329 272.078 257.218 272 257.084C271.921 256.95 271.88 256.798 271.879 256.642V194.79C271.897 194.267 272.05 193.758 272.322 193.312C272.573 192.85 272.937 192.459 273.379 192.175L291.867 181.499C292.071 181.376 292.305 181.312 292.543 181.312C292.782 181.312 293.015 181.376 293.22 181.499C293.528 181.689 293.752 181.99 293.845 182.34L295.119 187.434L295.312 187.991C295.361 188.198 295.459 188.39 295.598 188.55C295.737 188.711 295.913 188.836 296.111 188.914C296.308 188.992 296.522 189.021 296.733 188.999C296.944 188.977 297.147 188.904 297.324 188.787L340.815 163.693C340.967 163.591 341.141 163.528 341.324 163.508C341.506 163.488 341.69 163.513 341.861 163.579H341.917C342.077 163.689 342.203 163.841 342.283 164.017C342.363 164.193 342.394 164.388 342.372 164.58Z" fill="black"/>
<path d="M308.331 185.046V176.962L313.129 174.176L313.14 182.272L308.331 185.046Z" fill="#E6E6E6"/>
<path opacity="0.4" d="M272.504 257.495H272.435L270.161 256.154C270.022 256.038 269.913 255.892 269.841 255.725C269.77 255.559 269.74 255.379 269.752 255.198V193.528C269.769 193.005 269.922 192.496 270.196 192.05L272.47 193.357C272.197 193.8 272.045 194.305 272.026 194.824V256.665C272.017 256.835 272.057 257.004 272.141 257.151C272.226 257.299 272.352 257.418 272.504 257.495Z" fill="black"/>
<path d="M349.615 168.798C349.632 168.618 349.603 168.436 349.529 168.271C349.455 168.105 349.34 167.962 349.194 167.855C349.164 167.827 349.129 167.804 349.092 167.786L346.92 166.524C346.748 166.456 346.562 166.43 346.377 166.45C346.193 166.47 346.016 166.534 345.863 166.638L302.418 191.652L301.145 186.558C301.054 186.21 300.829 185.912 300.519 185.728L298.245 184.421C298.039 184.293 297.801 184.225 297.558 184.225C297.315 184.225 297.076 184.293 296.87 184.421L278.382 195.086C277.945 195.371 277.581 195.756 277.32 196.208C277.059 196.66 276.909 197.168 276.881 197.689V259.337C276.869 259.517 276.899 259.698 276.97 259.864C277.042 260.03 277.151 260.177 277.291 260.292L279.565 261.634C279.731 261.703 279.913 261.728 280.093 261.706C280.272 261.684 280.443 261.616 280.588 261.509L348.08 222.555C348.516 222.269 348.879 221.884 349.139 221.432C349.4 220.98 349.551 220.473 349.581 219.952L349.615 168.798Z" fill="#0092B8"/>
<path d="M300.485 185.728C300.275 185.618 300.039 185.565 299.801 185.575C299.564 185.585 299.333 185.657 299.132 185.785L280.645 196.45C280.206 196.738 279.843 197.128 279.587 197.587L277.313 196.279C277.563 195.816 277.927 195.425 278.371 195.142L296.858 184.477C297.065 184.35 297.303 184.282 297.546 184.282C297.789 184.282 298.028 184.35 298.234 184.477L300.485 185.728Z" fill="#0092B8"/>
<path d="M349.092 167.786C348.927 167.734 348.752 167.72 348.58 167.746C348.409 167.771 348.245 167.836 348.103 167.934L304.613 193.028C304.435 193.145 304.233 193.218 304.021 193.24C303.81 193.262 303.596 193.233 303.399 193.155C303.201 193.077 303.025 192.952 302.886 192.791C302.747 192.63 302.649 192.439 302.6 192.232L302.407 191.675L345.851 166.661C346.051 166.53 346.284 166.459 346.522 166.456C346.656 166.455 346.789 166.486 346.909 166.547L349.092 167.786Z" fill="#0092B8"/>
<path d="M349.615 168.798V219.963C349.587 220.484 349.437 220.992 349.176 221.444C348.915 221.897 348.551 222.281 348.114 222.567L280.463 261.668C280.329 261.745 280.176 261.786 280.021 261.787C279.866 261.787 279.713 261.747 279.579 261.669C279.444 261.592 279.332 261.481 279.254 261.347C279.176 261.213 279.134 261.061 279.133 260.906V199.065C279.167 198.545 279.321 198.04 279.581 197.589C279.841 197.138 280.201 196.752 280.634 196.461L299.121 185.785C299.323 185.66 299.553 185.588 299.79 185.578C300.027 185.569 300.263 185.62 300.474 185.728C300.784 185.911 301.009 186.21 301.099 186.558L302.373 191.663L302.566 192.209C302.615 192.416 302.713 192.608 302.852 192.768C302.991 192.929 303.167 193.054 303.365 193.132C303.562 193.21 303.776 193.239 303.987 193.217C304.199 193.195 304.402 193.122 304.579 193.005L348.069 167.911C348.211 167.813 348.375 167.748 348.546 167.723C348.718 167.697 348.893 167.711 349.058 167.764H349.115C349.288 167.87 349.427 168.025 349.516 168.208C349.604 168.391 349.639 168.596 349.615 168.798Z" fill="#0092B8"/>
<path opacity="0.1" d="M349.615 168.798V219.963C349.587 220.484 349.437 220.992 349.176 221.444C348.915 221.897 348.551 222.281 348.114 222.567L280.463 261.668C280.329 261.745 280.176 261.786 280.021 261.787C279.866 261.787 279.713 261.747 279.579 261.669C279.444 261.592 279.332 261.481 279.254 261.347C279.176 261.213 279.134 261.061 279.133 260.906V199.065C279.167 198.545 279.321 198.04 279.581 197.589C279.841 197.138 280.201 196.752 280.634 196.461L299.121 185.785C299.323 185.66 299.553 185.588 299.79 185.578C300.027 185.569 300.263 185.62 300.474 185.728C300.784 185.911 301.009 186.21 301.099 186.558L302.373 191.663L302.566 192.209C302.615 192.416 302.713 192.608 302.852 192.768C302.991 192.929 303.167 193.054 303.365 193.132C303.562 193.21 303.776 193.239 303.987 193.217C304.199 193.195 304.402 193.122 304.579 193.005L348.069 167.911C348.211 167.813 348.375 167.748 348.546 167.723C348.718 167.697 348.893 167.711 349.058 167.764H349.115C349.288 167.87 349.427 168.025 349.516 168.208C349.604 168.391 349.639 168.596 349.615 168.798Z" fill="black"/>
<path d="M325.943 183.272L325.954 175.188L330.752 172.414V180.498L325.943 183.272Z" fill="#F0F0F0"/>
<path opacity="0.3" d="M279.69 261.725H279.622L277.348 260.372C277.208 260.257 277.099 260.11 277.027 259.944C276.956 259.778 276.926 259.597 276.938 259.417V197.746C276.958 197.224 277.111 196.715 277.382 196.268L279.656 197.576C279.383 198.022 279.231 198.531 279.212 199.054V260.906C279.209 261.073 279.252 261.238 279.336 261.383C279.42 261.527 279.543 261.645 279.69 261.725Z" fill="black"/>
<path d="M356.858 173.016C356.874 172.837 356.845 172.657 356.774 172.492C356.702 172.327 356.59 172.183 356.448 172.073L356.335 172.004L354.163 170.742C353.994 170.663 353.806 170.631 353.62 170.649C353.434 170.667 353.257 170.735 353.105 170.845L309.661 195.859L308.387 190.753C308.293 190.407 308.069 190.11 307.762 189.923L305.488 188.605C305.281 188.479 305.043 188.413 304.8 188.413C304.558 188.413 304.32 188.479 304.112 188.605L285.625 199.281C285.188 199.565 284.825 199.947 284.564 200.398C284.303 200.848 284.153 201.354 284.124 201.873V263.635C284.111 263.815 284.142 263.996 284.213 264.162C284.284 264.328 284.394 264.475 284.533 264.59L286.807 265.943C286.975 266.01 287.156 266.034 287.335 266.012C287.514 265.99 287.684 265.923 287.831 265.818L355.323 226.853C355.76 226.568 356.124 226.183 356.385 225.731C356.645 225.278 356.796 224.771 356.823 224.249L356.858 173.016Z" fill="#0092B8"/>
<path opacity="0.5" d="M307.751 189.946C307.539 189.838 307.304 189.787 307.067 189.797C306.829 189.807 306.599 189.878 306.398 190.003L287.91 200.679C287.466 200.962 287.102 201.353 286.853 201.816L284.579 200.498C284.831 200.037 285.194 199.646 285.636 199.361L304.124 188.696C304.332 188.573 304.569 188.508 304.811 188.508C305.053 188.508 305.291 188.573 305.499 188.696L307.751 189.946Z" fill="white"/>
<path opacity="0.5" d="M356.335 172.004C356.169 171.952 355.994 171.938 355.823 171.964C355.651 171.989 355.488 172.054 355.345 172.152L311.855 197.246C311.678 197.363 311.475 197.436 311.264 197.458C311.053 197.48 310.839 197.451 310.641 197.373C310.444 197.295 310.268 197.17 310.129 197.009C309.99 196.849 309.892 196.657 309.843 196.45L309.65 195.904L353.094 170.89C353.296 170.765 353.527 170.695 353.765 170.686C353.901 170.683 354.035 170.718 354.152 170.788L356.335 172.004Z" fill="white"/>
<path d="M356.857 173.028V224.193C356.831 224.714 356.681 225.222 356.42 225.675C356.159 226.127 355.795 226.512 355.357 226.796L287.717 265.909C287.582 265.987 287.428 266.028 287.272 266.028C287.116 266.027 286.963 265.986 286.828 265.908C286.693 265.829 286.581 265.716 286.503 265.581C286.426 265.445 286.386 265.292 286.386 265.136V203.283C286.421 202.763 286.575 202.258 286.835 201.807C287.095 201.356 287.455 200.97 287.887 200.68L306.375 190.014C306.575 189.885 306.805 189.811 307.042 189.799C307.28 189.787 307.516 189.838 307.728 189.946C308.035 190.132 308.259 190.43 308.353 190.776L309.627 195.881L309.82 196.427C309.867 196.635 309.964 196.828 310.103 196.99C310.241 197.152 310.417 197.278 310.615 197.358C310.813 197.437 311.027 197.467 311.239 197.446C311.451 197.424 311.655 197.352 311.832 197.234L355.323 172.13C355.466 172.033 355.63 171.971 355.801 171.947C355.973 171.923 356.147 171.939 356.312 171.993H356.369C356.534 172.107 356.667 172.263 356.753 172.444C356.839 172.626 356.875 172.828 356.857 173.028Z" fill="#0092B8"/>
<path d="M343.567 181.498V173.426L348.376 170.64V178.724L343.567 181.498Z" fill="#FAFAFA"/>
<path opacity="0.2" d="M286.932 265.909H286.864L284.59 264.556C284.451 264.441 284.341 264.294 284.27 264.128C284.199 263.962 284.168 263.781 284.181 263.601V201.964C284.201 201.442 284.353 200.933 284.624 200.486L286.898 201.805C286.626 202.252 286.473 202.761 286.455 203.283V265.124C286.454 265.287 286.498 265.446 286.582 265.584C286.667 265.723 286.788 265.835 286.932 265.909Z" fill="black"/>
<path d="M291.89 222.43L249.23 197.826L249.218 244.897L291.878 269.513L291.89 222.43Z" fill="#37474F"/>
<path d="M252.208 196.098L249.218 197.814L291.89 222.43L294.868 220.713L252.208 196.098Z" fill="#455A64"/>
<path d="M291.025 219.804L367.909 175.415V228.854L291.025 273.242V219.804Z" fill="#455A64"/>
<path d="M321.167 211.458L334.243 203.909C335.937 202.931 337.313 203.386 337.313 204.909C337.188 205.853 336.846 206.755 336.313 207.544C335.78 208.334 335.072 208.988 334.243 209.457L321.156 217.018C319.462 217.996 318.086 217.553 318.086 216.018C318.211 215.071 318.554 214.166 319.089 213.374C319.623 212.583 320.335 211.927 321.167 211.458Z" fill="#263238"/>
<path d="M291.026 219.804L288.467 218.326V271.764L291.026 273.242V219.804Z" fill="#263238"/>
<path d="M288.467 218.326L365.351 173.937L367.909 175.416L291.026 219.804L288.467 218.326Z" fill="#37474F"/>
<path d="M127.923 419.904V370.933L191.55 334.197V383.167L127.923 419.904Z" fill="#0092B8"/>
<path d="M127.924 370.933L48.4022 325.01V373.992L127.924 419.903V370.933Z" fill="#0092B8"/>
<path opacity="0.15" d="M127.924 370.933L48.4022 325.01V373.992L127.924 419.903V370.933Z" fill="black"/>
<path d="M127.923 370.933L193.437 333.094L112.017 286.079L46.5146 323.918L127.923 370.933Z" fill="#0092B8"/>
<path opacity="0.45" d="M127.923 370.933L193.437 333.094L112.017 286.079L46.5146 323.918L127.923 370.933Z" fill="white"/>
<path d="M127.923 370.933V383.179L193.437 345.351V333.094L127.923 370.933Z" fill="#0092B8"/>
<path opacity="0.2" d="M127.923 383.178L191.55 346.442V349.137L127.923 385.862V383.178Z" fill="black"/>
<path d="M46.515 323.918L127.924 370.933V383.179L46.515 336.164V323.918Z" fill="#0092B8"/>
<path opacity="0.2" d="M46.515 323.918L127.924 370.933V383.179L46.515 336.164V323.918Z" fill="black"/>
<path opacity="0.2" d="M127.924 383.179L48.4022 337.255V339.95L127.924 385.862V383.179Z" fill="black"/>
<path d="M148.879 378.369L170.607 365.862C171.539 365.316 172.301 365.76 172.301 366.84V379.608C172.269 380.196 172.099 380.768 171.805 381.278C171.51 381.788 171.1 382.221 170.607 382.542L148.879 395.049C147.935 395.583 147.173 395.151 147.173 394.071V381.314C147.204 380.723 147.375 380.148 147.672 379.636C147.968 379.124 148.382 378.69 148.879 378.369Z" fill="#455A64"/>
<path d="M150.265 379.824L169.219 368.887C169.833 368.534 170.356 368.818 170.356 369.546V379.176C170.331 379.568 170.215 379.949 170.018 380.288C169.821 380.627 169.547 380.916 169.219 381.132L150.265 392.115C149.64 392.479 149.128 392.183 149.128 391.467V381.837C149.142 381.435 149.253 381.042 149.451 380.691C149.648 380.341 149.928 380.044 150.265 379.824Z" fill="#F5F5F5"/>
<g opacity="0.5">
<path d="M150.845 382.371C150.799 382.372 150.752 382.36 150.712 382.336C150.672 382.312 150.639 382.277 150.618 382.235C150.599 382.204 150.587 382.17 150.581 382.135C150.576 382.099 150.577 382.063 150.586 382.028C150.594 381.994 150.609 381.961 150.631 381.932C150.652 381.903 150.678 381.878 150.709 381.86L168.605 371.536C168.636 371.517 168.67 371.505 168.705 371.499C168.741 371.494 168.777 371.495 168.812 371.504C168.847 371.512 168.879 371.527 168.908 371.548C168.937 371.57 168.962 371.596 168.981 371.627C169.018 371.692 169.028 371.769 169.009 371.841C168.99 371.913 168.943 371.975 168.878 372.013L150.993 382.337C150.948 382.36 150.897 382.372 150.845 382.371Z" fill="#455A64"/>
<path d="M150.845 384.736C150.799 384.737 150.752 384.725 150.712 384.701C150.672 384.676 150.639 384.641 150.618 384.6C150.599 384.569 150.587 384.535 150.581 384.5C150.576 384.464 150.577 384.428 150.586 384.393C150.594 384.358 150.609 384.326 150.631 384.297C150.652 384.268 150.678 384.243 150.709 384.224L168.549 373.923C168.579 373.905 168.613 373.892 168.649 373.887C168.684 373.881 168.72 373.883 168.755 373.891C168.79 373.899 168.823 373.915 168.852 373.936C168.881 373.957 168.905 373.984 168.924 374.014C168.961 374.079 168.971 374.156 168.952 374.229C168.933 374.301 168.886 374.363 168.821 374.401L150.936 384.725C150.907 384.733 150.876 384.737 150.845 384.736Z" fill="#455A64"/>
<path d="M150.845 387.101C150.799 387.102 150.752 387.09 150.712 387.066C150.672 387.041 150.639 387.007 150.618 386.965C150.599 386.934 150.587 386.9 150.581 386.865C150.576 386.829 150.577 386.793 150.586 386.758C150.594 386.723 150.609 386.691 150.631 386.662C150.652 386.633 150.678 386.608 150.709 386.59L168.605 376.266C168.636 376.247 168.67 376.235 168.705 376.229C168.741 376.223 168.777 376.225 168.812 376.233C168.847 376.242 168.879 376.257 168.908 376.278C168.937 376.299 168.962 376.326 168.981 376.357C169.018 376.422 169.028 376.499 169.009 376.571C168.99 376.643 168.943 376.705 168.878 376.743L150.993 387.067C150.948 387.09 150.897 387.102 150.845 387.101Z" fill="#455A64"/>
<path d="M150.845 389.466C150.799 389.467 150.752 389.455 150.712 389.43C150.672 389.406 150.639 389.371 150.618 389.33C150.599 389.299 150.587 389.265 150.581 389.23C150.576 389.194 150.577 389.158 150.586 389.123C150.594 389.088 150.609 389.055 150.631 389.027C150.652 388.998 150.678 388.973 150.709 388.954L168.605 378.631C168.669 378.594 168.744 378.585 168.814 378.604C168.885 378.623 168.944 378.67 168.981 378.733C169.017 378.796 169.026 378.871 169.007 378.942C168.988 379.012 168.942 379.072 168.878 379.108L150.993 389.432C150.948 389.455 150.897 389.467 150.845 389.466Z" fill="#455A64"/>
</g>
<path opacity="0.1" d="M188.116 330.024L127.923 364.771L51.8357 320.814L49.9711 321.917L127.923 366.772L189.992 331.104L188.116 330.024Z" fill="black"/>
<path d="M127.923 364.771V315.8L191.549 279.064V328.034L127.923 364.771Z" fill="#0092B8"/>
<path d="M127.923 315.8L48.4019 269.877V318.859L127.923 364.771V315.8Z" fill="#0092B8"/>
<path opacity="0.15" d="M127.923 315.8L48.4019 269.877V318.859L127.923 364.771V315.8Z" fill="black"/>
<path d="M127.923 315.8L193.437 277.961L112.017 230.946L46.5146 268.785L127.923 315.8Z" fill="#0092B8"/>
<path opacity="0.6" d="M127.923 315.8L193.437 277.961L112.017 230.946L46.5146 268.785L127.923 315.8Z" fill="white"/>
<path d="M127.923 315.8V328.034L193.437 290.218V277.961L127.923 315.8Z" fill="#0092B8"/>
<path opacity="0.2" d="M127.923 328.034L191.549 291.309V294.004L127.923 330.729V328.034Z" fill="black"/>
<path d="M46.5146 268.785L127.923 315.8V328.034L46.5146 281.031V268.785Z" fill="#0092B8"/>
<path opacity="0.2" d="M46.5146 268.785L127.923 315.8V328.034L46.5146 281.031V268.785Z" fill="black"/>
<path opacity="0.2" d="M127.923 328.034L48.4019 282.122V284.817L127.923 330.729V328.034Z" fill="black"/>
<path d="M148.879 323.236L170.607 310.729C171.539 310.184 172.301 310.627 172.301 311.707V324.555C172.269 325.143 172.099 325.715 171.805 326.225C171.51 326.734 171.1 327.167 170.607 327.489L148.879 339.995C147.935 340.53 147.173 340.098 147.173 339.018V326.17C147.206 325.581 147.378 325.008 147.674 324.498C147.97 323.989 148.383 323.556 148.879 323.236Z" fill="#455A64"/>
<path d="M150.265 324.691L169.219 313.753C169.833 313.401 170.356 313.685 170.356 314.413V324.043C170.331 324.435 170.215 324.816 170.018 325.155C169.82 325.494 169.547 325.783 169.219 325.999L150.265 336.937C149.64 337.301 149.128 337.005 149.128 336.289V326.658C149.149 326.264 149.263 325.88 149.46 325.538C149.658 325.196 149.934 324.906 150.265 324.691Z" fill="#F5F5F5"/>
<g opacity="0.5">
<path d="M150.845 327.238C150.798 327.239 150.752 327.227 150.712 327.203C150.672 327.179 150.639 327.144 150.618 327.102C150.599 327.071 150.587 327.037 150.581 327.002C150.576 326.966 150.577 326.93 150.586 326.895C150.594 326.861 150.609 326.828 150.631 326.799C150.652 326.77 150.678 326.745 150.709 326.727L168.605 316.403C168.636 316.384 168.67 316.372 168.705 316.366C168.741 316.36 168.777 316.362 168.812 316.37C168.847 316.379 168.879 316.394 168.908 316.415C168.937 316.436 168.962 316.463 168.98 316.494C169 316.524 169.013 316.559 169.019 316.595C169.025 316.632 169.023 316.669 169.013 316.704C169.003 316.739 168.986 316.772 168.963 316.801C168.94 316.829 168.911 316.852 168.878 316.869L150.993 327.204C150.947 327.227 150.897 327.239 150.845 327.238Z" fill="#455A64"/>
<path d="M150.845 329.58C150.798 329.581 150.752 329.569 150.712 329.545C150.672 329.521 150.639 329.486 150.618 329.444C150.599 329.413 150.587 329.379 150.581 329.344C150.576 329.308 150.577 329.272 150.586 329.237C150.594 329.203 150.609 329.17 150.631 329.141C150.652 329.112 150.678 329.087 150.709 329.069L168.605 318.745C168.636 318.726 168.67 318.714 168.705 318.708C168.741 318.703 168.777 318.704 168.812 318.713C168.847 318.721 168.879 318.736 168.908 318.757C168.937 318.778 168.962 318.805 168.98 318.836C169.018 318.901 169.028 318.978 169.009 319.05C168.99 319.122 168.943 319.184 168.878 319.222L150.936 329.58C150.906 329.585 150.876 329.585 150.845 329.58Z" fill="#455A64"/>
<path d="M150.845 331.968C150.798 331.969 150.752 331.957 150.712 331.932C150.672 331.908 150.639 331.873 150.618 331.832C150.599 331.801 150.587 331.767 150.581 331.732C150.576 331.696 150.577 331.66 150.586 331.625C150.594 331.59 150.609 331.557 150.631 331.529C150.652 331.5 150.678 331.475 150.709 331.456L168.605 321.132C168.636 321.114 168.67 321.101 168.705 321.096C168.741 321.09 168.777 321.092 168.812 321.1C168.847 321.109 168.879 321.124 168.908 321.145C168.937 321.166 168.962 321.193 168.98 321.223C169.018 321.288 169.028 321.365 169.009 321.438C168.99 321.51 168.943 321.572 168.878 321.61L150.993 331.934C150.947 331.957 150.897 331.969 150.845 331.968Z" fill="#455A64"/>
<path d="M150.845 334.333C150.798 334.334 150.752 334.322 150.712 334.297C150.672 334.273 150.639 334.238 150.618 334.197C150.599 334.166 150.587 334.132 150.581 334.097C150.576 334.061 150.577 334.025 150.586 333.99C150.594 333.955 150.609 333.923 150.631 333.894C150.652 333.865 150.678 333.84 150.709 333.821L168.605 323.498C168.669 323.461 168.744 323.452 168.814 323.471C168.884 323.49 168.944 323.537 168.98 323.6C169.017 323.663 169.026 323.738 169.007 323.809C168.988 323.879 168.941 323.939 168.878 323.975L150.993 334.299C150.947 334.322 150.897 334.334 150.845 334.333Z" fill="#455A64"/>
</g>
</svg>
