<svg width="30" height="30" viewBox="0 0 30 30" fill="none" xmlns="http://www.w3.org/2000/svg">
<path d="M6.50417 26.0541C6.60858 25.8809 6.7461 25.73 6.90887 25.6099C7.07163 25.4899 7.25645 25.4031 7.45278 25.3545C7.6491 25.3058 7.85308 25.2964 8.05306 25.3266C8.25304 25.3568 8.44511 25.4262 8.61829 25.5306C9.68642 26.1781 10.8468 26.6593 12.0597 26.9578C12.26 27.0025 12.4493 27.0867 12.6165 27.2055C12.7838 27.3244 12.9256 27.4754 13.0336 27.6499C13.1417 27.8243 13.2137 28.0185 13.2456 28.2212C13.2775 28.4239 13.2686 28.6309 13.2193 28.83C13.17 29.0292 13.0815 29.2165 12.9588 29.381C12.8361 29.5454 12.6818 29.6837 12.5049 29.7876C12.328 29.8916 12.1321 29.9592 11.9287 29.9864C11.7254 30.0136 11.5186 29.9999 11.3206 29.9461C9.80737 29.574 8.3594 28.9745 7.02616 28.1679C6.85294 28.0635 6.70199 27.926 6.58193 27.7633C6.46187 27.6005 6.37505 27.4157 6.32643 27.2194C6.27782 27.0231 6.26836 26.8192 6.29859 26.6192C6.32882 26.4193 6.39969 26.2272 6.50417 26.0541ZM21.38 25.5306C21.7297 25.3197 22.149 25.2564 22.5455 25.3546C22.9419 25.4527 23.2832 25.7044 23.4941 26.0541C23.705 26.4038 23.7684 26.823 23.6702 27.2194C23.572 27.6158 23.3203 27.957 22.9706 28.1679C21.6368 28.9746 20.1883 29.5742 18.6746 29.9461C18.2781 30.0439 17.8589 29.9802 17.5094 29.769C17.1598 29.5578 16.9085 29.2164 16.8107 28.8199C16.7129 28.4234 16.7766 28.0043 16.9878 27.6548C17.1991 27.3053 17.5405 27.054 17.937 26.9563C19.1503 26.6584 20.3113 26.1777 21.38 25.5306ZM1.17038 16.809C1.56648 16.7114 1.98517 16.7748 2.33449 16.9856C2.68382 17.1963 2.93523 17.537 3.03351 17.9329C3.33144 19.146 3.81222 20.3068 4.45935 21.3754C4.65269 21.7239 4.70334 22.1338 4.60064 22.5188C4.49795 22.9039 4.24991 23.2342 3.90868 23.4401C3.56746 23.6461 3.15965 23.7118 2.77101 23.6233C2.38236 23.5348 2.04318 23.2991 1.82478 22.9657C1.0174 21.6323 0.417228 20.184 0.0447997 18.6704C-0.0528906 18.2743 0.010611 17.8557 0.221361 17.5064C0.43211 17.1571 0.772879 16.9058 1.16884 16.8075M26.9601 17.9314C27.0581 17.5347 27.3097 17.1932 27.6596 16.982C28.0094 16.7708 28.4288 16.7072 28.8256 16.8052C29.2223 16.9032 29.5639 17.1547 29.7751 17.5045C29.9863 17.8543 30.0499 18.2737 29.9519 18.6704C29.7672 19.4165 29.5239 20.154 29.2221 20.8827C28.9192 21.6125 28.5697 22.3063 28.1735 22.9642C27.9623 23.3139 27.6209 23.5654 27.2243 23.6635C26.8277 23.7615 26.4084 23.698 26.0586 23.4869C25.7088 23.2758 25.4572 22.9344 25.3592 22.5378C25.2612 22.1413 25.3247 21.722 25.5358 21.3723C26.1828 20.3042 26.6621 19.144 26.9601 17.9314ZM1.82632 7.02207C1.92772 6.84284 2.06404 6.68577 2.22722 6.56015C2.3904 6.43454 2.57712 6.34292 2.77634 6.29074C2.97556 6.23856 3.18323 6.22686 3.38705 6.25635C3.59087 6.28583 3.7867 6.3559 3.96296 6.4624C4.13921 6.5689 4.29231 6.70967 4.41319 6.87638C4.53407 7.04309 4.62027 7.23236 4.6667 7.43297C4.71313 7.63358 4.71883 7.84146 4.68348 8.04432C4.64813 8.24718 4.57244 8.44088 4.46089 8.61397C3.81444 9.68213 3.33419 10.8424 3.03659 12.0549C2.93858 12.4514 2.68706 12.7927 2.33737 13.0037C1.98767 13.2148 1.56845 13.2783 1.17192 13.1803C0.775386 13.0823 0.434029 12.8308 0.222942 12.4812C0.0118554 12.1315 -0.0516705 11.7124 0.0463394 11.3159C0.418915 9.8028 1.01908 8.35503 1.82632 7.02207ZM26.0624 6.49862C26.2356 6.39416 26.4277 6.32483 26.6277 6.2946C26.8277 6.26437 27.0316 6.27384 27.228 6.32244C27.4243 6.37105 27.6091 6.45786 27.7719 6.5779C27.9346 6.69795 28.0721 6.84887 28.1766 7.02207C28.9833 8.35512 29.5829 9.80288 29.955 11.3159C30.053 11.7124 29.9895 12.1315 29.7784 12.4812C29.5673 12.8308 29.226 13.0823 28.8294 13.1803C28.4329 13.2783 28.0137 13.2148 27.664 13.0037C27.3143 12.7927 27.0628 12.4514 26.9648 12.0549C26.6667 10.8423 26.1859 9.68204 25.5389 8.61397C25.4344 8.44081 25.3651 8.24878 25.3349 8.04882C25.3046 7.84887 25.3141 7.64492 25.3627 7.44863C25.4113 7.25233 25.4982 7.06753 25.6182 6.90479C25.7383 6.74205 25.8892 6.60302 26.0624 6.49862ZM16.8145 1.16867C16.9128 0.772768 17.1642 0.432049 17.5135 0.221329C17.8629 0.0106098 18.2816 -0.0528831 18.6777 0.0447932C20.1909 0.416834 21.6389 1.01639 22.9721 1.82298C23.3089 2.03999 23.5479 2.37973 23.6382 2.77005C23.7285 3.16037 23.6631 3.57052 23.4559 3.9134C23.2486 4.25629 22.9159 4.50489 22.5283 4.60642C22.1407 4.70795 21.7287 4.65441 21.38 4.45716C20.3117 3.81081 19.1513 3.33063 17.9386 3.03307C17.5423 2.93482 17.2012 2.68322 16.9904 2.33359C16.7797 1.98396 16.7164 1.56494 16.8145 1.16867ZM11.3206 0.0447932C11.7104 -0.035762 12.1163 0.037748 12.4531 0.249903C12.7898 0.462058 13.0314 0.796371 13.127 1.18271C13.2226 1.56906 13.1648 1.97741 12.9658 2.3221C12.7669 2.6668 12.4421 2.92105 12.0597 3.03153C10.8469 3.32957 9.68651 3.81028 8.61829 4.45716C8.26952 4.65441 7.8576 4.70795 7.46999 4.60642C7.08238 4.50489 6.74962 4.25629 6.54238 3.9134C6.33513 3.57052 6.26973 3.16037 6.36006 2.77005C6.45039 2.37973 6.68934 2.03999 7.02616 1.82298C8.35931 1.01586 9.80729 0.417315 11.3206 0.0447932Z" fill="#007595"/>
<path d="M16.5004 8.55706C16.6047 8.42809 16.7496 8.33676 16.9125 8.29741C17.0754 8.25806 17.247 8.27292 17.4004 8.33966C17.5537 8.40639 17.6801 8.52122 17.7597 8.6661C17.8394 8.81099 17.8677 8.97772 17.8402 9.14011L17.0416 13.8461H19.9325C20.0747 13.8461 20.2142 13.8854 20.3347 13.9596C20.4553 14.0337 20.5521 14.1398 20.614 14.2654C20.676 14.3911 20.7006 14.5314 20.685 14.6702C20.6694 14.809 20.6143 14.9406 20.5259 15.0501L14.5331 22.4775C14.4289 22.6064 14.2839 22.6978 14.121 22.7371C13.9581 22.7765 13.7865 22.7616 13.6332 22.6949C13.4798 22.6281 13.3534 22.5133 13.2738 22.3684C13.1942 22.2235 13.1659 22.0568 13.1933 21.8944L13.9919 17.1884H11.1011C10.9588 17.1883 10.8195 17.1489 10.6991 17.0746C10.5786 17.0004 10.4819 16.8944 10.4201 16.7687C10.3582 16.6431 10.3337 16.5028 10.3493 16.3641C10.3649 16.2254 10.42 16.0938 10.5084 15.9844L16.5004 8.55706Z" fill="#007595"/>
</svg>
